<svg viewBox="0 0 100 100" xmlns="http://www.w3.org/2000/svg"><path d="m50 0a50 50 0 1 0 50 50 50.06 50.06 0 0 0 -50-50zm0 98.33a48.33 48.33 0 1 1 48.33-48.33 48.38 48.38 0 0 1 -48.33 48.33zm-22.11-73.33 14.46 25-14.46 25h44.22l-14.46-25 14.46-25zm39.66 1.67-17.55 10.08-17.53-10.13zm-16.71 14.87 4.88 8.46-4.88 8.46zm-19.23-13.49 17.56 10.14-5.85 10.14zm17.55 13.49v16.92l-4.88-8.46zm-5.84 10.13 5.84 10.13-17.54 10.14zm-10.87 21.71 17.55-10.13 17.53 10.13zm35.94-1.38-17.55-10.19 5.84-10.13zm-11.71-23.67-5.84-10.13 17.54-10.13z" fill-rule="evenodd" opacity=".8"/></svg>